# xmcd
# 
# Track frame offsets:
#     150
#     13504
#     29168
#     44216
#     64634
#     79017
#     94695
#     112196
#     127542
#     149341
#     164350
#     180622
#     202202
#     222568
#     248234
# 
# Disc length: 3847
# 
# Revision: 0
# Processed by: cddbd v1.5.2PL0 Copyright (c) Steve Scherf et al.
# Submitted via: fre:ac v1.0.17
# 
DISCID=df0f050f
DTITLE=Garou - Rhythm And Blues
DYEAR=0
DGENRE=Blues
TTITLE0=Quand Tu Danses
TTITLE1=Little Green Bag
TTITLE2=Le Jour Se Leve
TTITLE3=Marie-Jeanne
TTITLE4=I Put Spell On You
TTITLE5=Hard To Handle
TTITLE6=If i Ain't Got You
TTITLE7=Lonely Boy
TTITLE8=Cash City
TTITLE9=Sur La Route
TTITLE10=Bad Day
TTITLE11=Je Voudrais Voir New York
TTITLE12=Ode To Billy Joe
TTITLE13=I Put Spell On You (Acoustique)
TTITLE14=Data track
EXTD=
EXTT0=
EXTT1=
EXTT2=
EXTT3=
EXTT4=
EXTT5=
EXTT6=
EXTT7=
EXTT8=
EXTT9=
EXTT10=
EXTT11=
EXTT12=
EXTT13=
EXTT14=
PLAYORDER=
